<svg width="28" height="28" viewBox="0 0 28 28" fill="none" xmlns="http://www.w3.org/2000/svg">
<path d="M21.3676 22.3836L22.2803 21.4896C26.5032 21.6256 26.5681 21.4796 26.7536 21.0516L27.9138 18.2666L28 18.0026L27.9057 17.7716C27.856 17.6496 27.7029 17.2856 25.0661 14.8066V13.5026C28.1085 10.6126 28.0436 10.4646 27.8702 10.0416L26.7151 7.22758C26.5417 6.80558 26.4758 6.64058 22.2834 6.75358L21.3707 5.82358C21.4649 4.45368 21.417 3.07788 21.2277 1.71758L21.11 1.45458L18.094 0.154579C17.6498 -0.0454207 17.4937 -0.117421 14.646 2.94058L13.3662 2.92158C10.4343 -0.164421 10.2954 -0.108421 9.85628 0.0665792L7.05223 1.18458C6.61311 1.35958 6.45795 1.42158 6.62832 5.62158L5.72271 6.51158C1.50192 6.37558 1.43702 6.52358 1.25346 6.94958L0.0912714 9.73558L0 10.0026L0.0953279 10.2346C0.14502 10.3546 0.292068 10.7146 2.93488 13.1966V14.4966C-0.107497 17.3866 -0.0415791 17.5346 0.13285 17.9586L1.28693 20.7756C1.46338 21.2066 1.52626 21.3596 5.71764 21.2516L6.63035 22.1866C6.53575 23.5544 6.5823 24.9281 6.76929 26.2866L6.88693 26.5516L9.9222 27.8596C10.3633 28.0416 10.5165 28.1066 13.356 25.0596L14.6359 25.0756C17.5718 28.1656 17.7218 28.1056 18.1508 27.9346L20.9488 26.8196C21.3909 26.6466 21.5451 26.5856 21.3676 22.3836ZM9.34212 15.8596C8.98825 14.9476 8.91539 13.9529 9.13269 13.0003C9.34999 12.0477 9.84776 11.1796 10.5636 10.5049C11.2794 9.83016 12.1813 9.37894 13.1562 9.20782C14.1311 9.0367 15.1355 9.1533 16.0434 9.54299C16.9514 9.93268 17.7224 10.5781 18.2597 11.3983C18.797 12.2184 19.0768 13.1768 19.0638 14.1532C19.0508 15.1295 18.7456 16.0803 18.1867 16.8863C17.6277 17.6923 16.8398 18.3175 15.9218 18.6836C14.6693 19.1665 13.2737 19.1406 12.0406 18.6113C10.8074 18.082 9.83717 17.0926 9.34212 15.8596Z" fill="white"/>
</svg>
