<svg width="28" height="28" viewBox="0 0 28 28" fill="none" xmlns="http://www.w3.org/2000/svg">
<path fill-rule="evenodd" clip-rule="evenodd" d="M14 0C6.2678 0 0 6.2678 0 14C0 21.7322 6.2678 28 14 28C21.7322 28 28 21.7322 28 14C28 6.2678 21.7322 0 14 0ZM9.1 10.5C9.1 9.85652 9.22674 9.21935 9.47299 8.62485C9.71924 8.03036 10.0802 7.49018 10.5352 7.03518C10.9902 6.58017 11.5304 6.21924 12.1249 5.97299C12.7193 5.72674 13.3565 5.6 14 5.6C14.6435 5.6 15.2807 5.72674 15.8751 5.97299C16.4696 6.21924 17.0098 6.58017 17.4648 7.03518C17.9198 7.49018 18.2808 8.03036 18.527 8.62485C18.7733 9.21935 18.9 9.85652 18.9 10.5C18.9 11.7996 18.3838 13.0459 17.4648 13.9648C16.5459 14.8838 15.2996 15.4 14 15.4C12.7004 15.4 11.4541 14.8838 10.5352 13.9648C9.61625 13.0459 9.1 11.7996 9.1 10.5ZM22.7612 20.9776C21.7132 22.2959 20.3809 23.3603 18.8638 24.0915C17.3468 24.8226 15.6841 25.2016 14 25.2C12.3159 25.2016 10.6532 24.8226 9.13616 24.0915C7.61908 23.3603 6.28679 22.2959 5.2388 20.9776C7.5082 19.3494 10.605 18.2 14 18.2C17.395 18.2 20.4918 19.3494 22.7612 20.9776Z" fill="white"/>
</svg>
