<svg width="28" height="28" viewBox="0 0 28 28" fill="none" xmlns="http://www.w3.org/2000/svg">
<path d="M21.3676 22.3839L22.2803 21.4899C26.5032 21.6259 26.5681 21.4799 26.7536 21.0519L27.9138 18.2669L28 18.0029L27.9057 17.7718C27.856 17.6498 27.7029 17.2858 25.0661 14.8068V13.5028C28.1085 10.6127 28.0436 10.4647 27.8702 10.0417L26.7151 7.22769C26.5417 6.80568 26.4758 6.64068 22.2834 6.75368L21.3707 5.82367C21.4649 4.45375 21.417 3.07792 21.2277 1.71761L21.11 1.4546L18.094 0.154582C17.6498 -0.0454214 17.4937 -0.117423 14.646 2.94062L13.3662 2.92162C10.4343 -0.164423 10.2954 -0.108422 9.85628 0.0665803L7.05223 1.1846C6.61311 1.3596 6.45795 1.4216 6.62832 5.62167L5.72271 6.51168C1.50192 6.37568 1.43702 6.52368 1.25346 6.94968L0.0912714 9.73573L0 10.0027L0.0953279 10.2347C0.14502 10.3547 0.292068 10.7147 2.93488 13.1968V14.4968C-0.107497 17.3868 -0.0415791 17.5348 0.13285 17.9589L1.28692 20.7759C1.46338 21.2069 1.52626 21.3599 5.71764 21.2519L6.63035 22.1869C6.53575 23.5547 6.5823 24.9285 6.76929 26.287L6.88693 26.552L9.9222 27.86C10.3633 28.042 10.5165 28.107 13.356 25.06L14.6359 25.076C17.5718 28.166 17.7218 28.106 18.1508 27.935L20.9488 26.82C21.3909 26.647 21.5451 26.586 21.3676 22.3839ZM9.34212 15.8598C8.98825 14.9479 8.91539 13.9532 9.13269 13.0005C9.34999 12.0479 9.84776 11.1797 10.5636 10.505C11.2794 9.83031 12.1813 9.37908 13.1562 9.20796C14.1311 9.03684 15.1355 9.15344 16.0434 9.54313C16.9514 9.93283 17.7224 10.5783 18.2597 11.3984C18.797 12.2186 19.0768 13.177 19.0638 14.1534C19.0508 15.1297 18.7456 16.0806 18.1867 16.8866C17.6277 17.6926 16.8398 18.3178 15.9218 18.6839C14.6693 19.1668 13.2737 19.1409 12.0406 18.6116C10.8074 18.0823 9.83717 17.0929 9.34212 15.8598Z" fill="#454545"/>
</svg>
